<mxfile host="65bd71144e">
    <diagram id="KBQKWHm6vpujxedvJ-2u" name="Page-1">
        <mxGraphModel dx="929" dy="683" grid="1" gridSize="10" guides="1" tooltips="1" connect="1" arrows="1" fold="1" page="1" pageScale="1" pageWidth="850" pageHeight="1100" math="0" shadow="0">
            <root>
                <mxCell id="0"/>
                <mxCell id="1" parent="0"/>
                <mxCell id="2" value="" style="html=1;shadow=0;dashed=0;fontSize=16;fontColor=#181819;align=left;spacing=15;fillColor=#512da8;strokeWidth=1;strokeColor=#FFFFFF;" vertex="1" parent="1">
                    <mxGeometry width="850" height="60" as="geometry"/>
                </mxCell>
                <mxCell id="3" value="Nhân viên" style="fillColor=none;strokeColor=none;fontSize=14;align=center;fontColor=#FFFFFF;" vertex="1" parent="2">
                    <mxGeometry width="70" height="40" relative="1" as="geometry">
                        <mxPoint x="140" y="10" as="offset"/>
                    </mxGeometry>
                </mxCell>
                <mxCell id="4" value="Phòng ban" style="fillColor=none;strokeColor=none;fontSize=14;align=center;fontColor=#FFFFFF;" vertex="1" parent="2">
                    <mxGeometry width="50" height="40" relative="1" as="geometry">
                        <mxPoint x="240" y="10" as="offset"/>
                    </mxGeometry>
                </mxCell>
                <mxCell id="5" value="Bảng lương" style="fillColor=none;strokeColor=none;fontSize=14;align=center;fontColor=#FFFFFF;" vertex="1" parent="2">
                    <mxGeometry width="80" height="40" relative="1" as="geometry">
                        <mxPoint x="330" y="10" as="offset"/>
                    </mxGeometry>
                </mxCell>
                <mxCell id="6" value="Ứng dụng quản lý nhân sự V1.0" style="fillColor=none;strokeColor=none;fontSize=17;align=center;fontColor=#FFFFFF;spacingLeft=1;strokeWidth=1;" vertex="1" parent="2">
                    <mxGeometry width="250" height="40" relative="1" as="geometry">
                        <mxPoint x="540" y="10" as="offset"/>
                    </mxGeometry>
                </mxCell>
                <mxCell id="8" value="" style="rounded=0;whiteSpace=wrap;html=1;fillColor=#ededed;shadow=0;" vertex="1" parent="1">
                    <mxGeometry x="60" y="60" width="730" height="490" as="geometry"/>
                </mxCell>
                <mxCell id="9" value="LOGO" style="fillColor=none;strokeColor=none;fontSize=14;align=center;fontColor=#FFFFFF;" vertex="1" parent="1">
                    <mxGeometry x="60" y="10" width="70" height="40" as="geometry"/>
                </mxCell>
                <mxCell id="10" value="&lt;font color=&quot;#000000&quot; style=&quot;font-size: 22px&quot;&gt;Phòng ban&lt;/font&gt;" style="rounded=0;whiteSpace=wrap;html=1;fillColor=#ededed;strokeColor=#ededed;" vertex="1" parent="1">
                    <mxGeometry x="310" y="60" width="230" height="60" as="geometry"/>
                </mxCell>
                <mxCell id="14" value="" style="edgeStyle=none;html=1;" edge="1" parent="1">
                    <mxGeometry relative="1" as="geometry">
                        <mxPoint x="125" y="269.9999999999999" as="sourcePoint"/>
                        <mxPoint x="125" y="329.9999999999999" as="targetPoint"/>
                    </mxGeometry>
                </mxCell>
                <mxCell id="15" value="" style="edgeStyle=none;html=1;" edge="1" parent="1">
                    <mxGeometry relative="1" as="geometry">
                        <mxPoint x="245" y="420" as="sourcePoint"/>
                        <mxPoint x="245" y="500" as="targetPoint"/>
                    </mxGeometry>
                </mxCell>
                <mxCell id="16" value="" style="rounded=0;whiteSpace=wrap;html=1;shadow=0;glass=0;sketch=0;strokeColor=#ededed;strokeWidth=0;fillColor=#FFFFFF;" vertex="1" parent="1">
                    <mxGeometry y="60" width="60" height="490" as="geometry"/>
                </mxCell>
                <mxCell id="17" value="" style="rounded=0;whiteSpace=wrap;html=1;shadow=0;glass=0;sketch=0;strokeColor=#ededed;strokeWidth=0;fillColor=#FFFFFF;" vertex="1" parent="1">
                    <mxGeometry x="790" y="60" width="60" height="490" as="geometry"/>
                </mxCell>
                <mxCell id="19" value="&lt;font color=&quot;#ffffff&quot;&gt;IMAGE&lt;/font&gt;" style="rounded=0;whiteSpace=wrap;html=1;shadow=0;glass=0;sketch=0;strokeColor=#ededed;strokeWidth=1;fillColor=#999999;" vertex="1" parent="1">
                    <mxGeometry x="195" y="140" width="100" height="80" as="geometry"/>
                </mxCell>
                <mxCell id="20" value="&lt;font style=&quot;font-size: 14px&quot;&gt;&lt;font color=&quot;#ffffff&quot;&gt;&lt;br&gt;&lt;br&gt;&lt;br&gt;&lt;br&gt;&lt;br&gt;&lt;br&gt;Sale Department&lt;br&gt;ID: Dept0x&lt;br&gt;Số lượng nhân viên: x&lt;/font&gt;&lt;br&gt;&lt;/font&gt;" style="rounded=1;whiteSpace=wrap;html=1;strokeColor=#ededed;shadow=0;sketch=0;glass=0;fillColor=#333333;strokeWidth=0;" vertex="1" parent="1">
                    <mxGeometry x="70" y="130" width="230" height="200" as="geometry"/>
                </mxCell>
                <mxCell id="21" value="&lt;font color=&quot;#ffffff&quot;&gt;IMAGE&lt;/font&gt;" style="rounded=0;whiteSpace=wrap;html=1;shadow=0;glass=0;sketch=0;strokeColor=#ededed;strokeWidth=1;fillColor=#999999;" vertex="1" parent="1">
                    <mxGeometry x="77.5" y="140" width="215" height="100" as="geometry"/>
                </mxCell>
                <mxCell id="73" value="&lt;font style=&quot;font-size: 14px&quot;&gt;&lt;font color=&quot;#ffffff&quot;&gt;&lt;br&gt;&lt;br&gt;&lt;br&gt;&lt;br&gt;&lt;br&gt;&lt;br&gt;HR Department&lt;br&gt;ID: Dept0x&lt;br&gt;Số lượng nhân viên: x&lt;/font&gt;&lt;br&gt;&lt;/font&gt;" style="rounded=1;whiteSpace=wrap;html=1;strokeColor=#ededed;shadow=0;sketch=0;glass=0;fillColor=#333333;strokeWidth=0;" vertex="1" parent="1">
                    <mxGeometry x="310" y="130" width="230" height="200" as="geometry"/>
                </mxCell>
                <mxCell id="74" value="&lt;font color=&quot;#ffffff&quot;&gt;IMAGE&lt;/font&gt;" style="rounded=0;whiteSpace=wrap;html=1;shadow=0;glass=0;sketch=0;strokeColor=#ededed;strokeWidth=1;fillColor=#999999;" vertex="1" parent="1">
                    <mxGeometry x="317.5" y="140" width="215" height="100" as="geometry"/>
                </mxCell>
                <mxCell id="75" value="&lt;font style=&quot;font-size: 14px&quot;&gt;&lt;font color=&quot;#ffffff&quot;&gt;&lt;br&gt;&lt;br&gt;&lt;br&gt;&lt;br&gt;&lt;br&gt;&lt;br&gt;Marketing Department&lt;br&gt;ID: Dept0x&lt;br&gt;Số lượng nhân viên: x&lt;/font&gt;&lt;br&gt;&lt;/font&gt;" style="rounded=1;whiteSpace=wrap;html=1;strokeColor=#ededed;shadow=0;sketch=0;glass=0;fillColor=#333333;strokeWidth=0;" vertex="1" parent="1">
                    <mxGeometry x="550" y="130" width="230" height="200" as="geometry"/>
                </mxCell>
                <mxCell id="76" value="&lt;font color=&quot;#ffffff&quot;&gt;IMAGE&lt;/font&gt;" style="rounded=0;whiteSpace=wrap;html=1;shadow=0;glass=0;sketch=0;strokeColor=#ededed;strokeWidth=1;fillColor=#999999;" vertex="1" parent="1">
                    <mxGeometry x="557.5" y="140" width="215" height="100" as="geometry"/>
                </mxCell>
                <mxCell id="77" value="&lt;font style=&quot;font-size: 14px&quot;&gt;&lt;font color=&quot;#ffffff&quot;&gt;&lt;br&gt;&lt;br&gt;&lt;br&gt;&lt;br&gt;&lt;br&gt;&lt;br&gt;IT Department&lt;br&gt;ID: Dept0x&lt;br&gt;Số lượng nhân viên: x&lt;/font&gt;&lt;br&gt;&lt;/font&gt;" style="rounded=1;whiteSpace=wrap;html=1;strokeColor=#ededed;shadow=0;sketch=0;glass=0;fillColor=#333333;strokeWidth=0;" vertex="1" parent="1">
                    <mxGeometry x="70" y="340" width="230" height="200" as="geometry"/>
                </mxCell>
                <mxCell id="78" value="&lt;font color=&quot;#ffffff&quot;&gt;IMAGE&lt;/font&gt;" style="rounded=0;whiteSpace=wrap;html=1;shadow=0;glass=0;sketch=0;strokeColor=#ededed;strokeWidth=1;fillColor=#999999;" vertex="1" parent="1">
                    <mxGeometry x="77.5" y="350" width="215" height="100" as="geometry"/>
                </mxCell>
                <mxCell id="79" value="&lt;font style=&quot;font-size: 14px&quot;&gt;&lt;font color=&quot;#ffffff&quot;&gt;&lt;br&gt;&lt;br&gt;&lt;br&gt;&lt;br&gt;&lt;br&gt;&lt;br&gt;Finance Department&lt;br&gt;ID: Dept0x&lt;br&gt;Số lượng nhân viên: x&lt;/font&gt;&lt;br&gt;&lt;/font&gt;" style="rounded=1;whiteSpace=wrap;html=1;strokeColor=#ededed;shadow=0;sketch=0;glass=0;fillColor=#333333;strokeWidth=0;" vertex="1" parent="1">
                    <mxGeometry x="310" y="340" width="230" height="200" as="geometry"/>
                </mxCell>
                <mxCell id="80" value="&lt;font color=&quot;#ffffff&quot;&gt;IMAGE&lt;/font&gt;" style="rounded=0;whiteSpace=wrap;html=1;shadow=0;glass=0;sketch=0;strokeColor=#ededed;strokeWidth=1;fillColor=#999999;" vertex="1" parent="1">
                    <mxGeometry x="317.5" y="350" width="215" height="100" as="geometry"/>
                </mxCell>
                <mxCell id="83" value="" style="line;strokeWidth=1;html=1;perimeter=backbonePerimeter;points=[];outlineConnect=0;strokeColor=#000000;" vertex="1" parent="1">
                    <mxGeometry x="70" y="107" width="710" height="10" as="geometry"/>
                </mxCell>
                <mxCell id="84" value="" style="rounded=0;whiteSpace=wrap;html=1;fontSize=17;strokeWidth=1;fontColor=#ffffff;fillColor=#d1c4e9;strokeColor=#FFFFFF;" vertex="1" parent="1">
                    <mxGeometry y="550" width="850" height="200" as="geometry"/>
                </mxCell>
                <mxCell id="85" value="" style="rounded=0;whiteSpace=wrap;html=1;fontSize=17;fontColor=#FFFFFF;strokeWidth=1;fillColor=#D1C4E9;strokeColor=#D1C4E9;" vertex="1" parent="1">
                    <mxGeometry x="60" y="551" width="120" height="199" as="geometry"/>
                </mxCell>
                <mxCell id="86" value="&lt;div style=&quot;text-align: left&quot;&gt;&lt;br&gt;&lt;/div&gt;&lt;br&gt;&lt;br&gt;" style="rounded=0;whiteSpace=wrap;html=1;fontSize=17;fontColor=#FFFFFF;strokeWidth=1;fillColor=#d1c4e9;strokeColor=#D1C4E9;" vertex="1" parent="1">
                    <mxGeometry x="190" y="550" width="380" height="199" as="geometry"/>
                </mxCell>
                <mxCell id="87" value="" style="rounded=0;whiteSpace=wrap;html=1;fontSize=17;fontColor=#FFFFFF;strokeWidth=1;fillColor=#d1c4e9;strokeColor=#D1C4E9;" vertex="1" parent="1">
                    <mxGeometry x="580" y="551" width="210" height="199" as="geometry"/>
                </mxCell>
                <mxCell id="88" value="&lt;font style=&quot;font-size: 24px&quot;&gt;Link&lt;/font&gt;" style="text;html=1;strokeColor=none;fillColor=none;align=center;verticalAlign=middle;whiteSpace=wrap;rounded=0;fontSize=17;fontColor=#FFFFFF;" vertex="1" parent="1">
                    <mxGeometry x="60" y="570" width="60" height="40" as="geometry"/>
                </mxCell>
                <mxCell id="89" value="&lt;font style=&quot;font-size: 24px&quot;&gt;Our Address&lt;/font&gt;" style="text;html=1;strokeColor=none;fillColor=none;align=center;verticalAlign=middle;whiteSpace=wrap;rounded=0;fontSize=17;fontColor=#FFFFFF;" vertex="1" parent="1">
                    <mxGeometry x="190" y="569" width="160" height="40" as="geometry"/>
                </mxCell>
                <mxCell id="90" value="&lt;font style=&quot;font-size: 24px&quot;&gt;Social - Icon&lt;/font&gt;" style="text;html=1;strokeColor=none;fillColor=none;align=center;verticalAlign=middle;whiteSpace=wrap;rounded=0;fontSize=17;fontColor=#FFFFFF;" vertex="1" parent="1">
                    <mxGeometry x="605" y="630" width="160" height="40" as="geometry"/>
                </mxCell>
                <mxCell id="91" value="&lt;span style=&quot;color: rgb(15 , 15 , 15) ; font-family: &amp;#34;times new roman&amp;#34; , &amp;#34;times&amp;#34; , serif ; font-size: 16px ; background-color: rgb(209 , 196 , 233)&quot;&gt;121, Clear Water Bay Road&lt;/span&gt;&lt;br style=&quot;box-sizing: border-box ; margin: 0px ; padding: 0px ; color: rgb(15 , 15 , 15) ; font-family: &amp;#34;times new roman&amp;#34; , &amp;#34;times&amp;#34; , serif ; font-size: 16px ; background-color: rgb(209 , 196 , 233)&quot;&gt;&lt;span style=&quot;color: rgb(15 , 15 , 15) ; font-family: &amp;#34;times new roman&amp;#34; , &amp;#34;times&amp;#34; , serif ; font-size: 16px ; background-color: rgb(209 , 196 , 233)&quot;&gt;Clear Water Bay, Kowloon&lt;/span&gt;&lt;br style=&quot;box-sizing: border-box ; margin: 0px ; padding: 0px ; color: rgb(15 , 15 , 15) ; font-family: &amp;#34;times new roman&amp;#34; , &amp;#34;times&amp;#34; , serif ; font-size: 16px ; background-color: rgb(209 , 196 , 233)&quot;&gt;&lt;span style=&quot;color: rgb(15 , 15 , 15) ; font-family: &amp;#34;times new roman&amp;#34; , &amp;#34;times&amp;#34; , serif ; font-size: 16px ; background-color: rgb(209 , 196 , 233)&quot;&gt;HONG KONG&lt;/span&gt;" style="text;html=1;strokeColor=none;fillColor=none;align=left;verticalAlign=middle;whiteSpace=wrap;rounded=0;fontSize=17;fontColor=#FFFFFF;" vertex="1" parent="1">
                    <mxGeometry x="205" y="639" width="120" height="40" as="geometry"/>
                </mxCell>
                <mxCell id="92" value="&lt;font style=&quot;font-size: 14px&quot; color=&quot;#0000ff&quot;&gt;Nhân viên&lt;/font&gt;" style="text;html=1;strokeColor=none;fillColor=none;align=left;verticalAlign=middle;whiteSpace=wrap;rounded=0;fontSize=17;fontColor=#FFFFFF;" vertex="1" parent="1">
                    <mxGeometry x="60" y="610" width="90" height="40" as="geometry"/>
                </mxCell>
                <mxCell id="93" value="&lt;font style=&quot;font-size: 14px&quot; color=&quot;#0000ff&quot;&gt;Phòng ban&lt;/font&gt;" style="text;html=1;strokeColor=none;fillColor=none;align=left;verticalAlign=middle;whiteSpace=wrap;rounded=0;fontSize=17;fontColor=#FFFFFF;" vertex="1" parent="1">
                    <mxGeometry x="60" y="640" width="110" height="40" as="geometry"/>
                </mxCell>
                <mxCell id="94" value="&lt;font style=&quot;font-size: 14px&quot; color=&quot;#0000ff&quot;&gt;Bảng lương&lt;/font&gt;" style="text;html=1;strokeColor=none;fillColor=none;align=left;verticalAlign=middle;whiteSpace=wrap;rounded=0;fontSize=17;fontColor=#FFFFFF;" vertex="1" parent="1">
                    <mxGeometry x="60" y="670" width="100" height="40" as="geometry"/>
                </mxCell>
            </root>
        </mxGraphModel>
    </diagram>
</mxfile>